<svg xmlns="http://www.w3.org/2000/svg" viewBox="0 0 1025 300"><path d="M0 300V0h1025v300zm786.39-12l5.81.29q98 0 196 .09c4 0 5.33-1.31 6.07-5.18l22.61-116.59c3.08-16 6.71-31.89 5.26-48.45-1.62-18.55-11.69-31.58-29.72-35.5-28.74-6.26-55.5-.74-80.11 15.27-4.28 2.79-8.41 5.81-12.76 8.82-.67-1-1.19-1.7-1.55-2.43-6.6-13.2-17.19-21-31.8-23a101.77 101.77 0 0 0-56.6 7.78c-5.84 2.6-11.47 5.7-18.05 9l2.23-14.55h-94.45c8 5.63 15.07 10.33 21.78 15.45a7.12 7.12 0 0 1 2.38 5.63l-9 52.11-13.26 76.31h5.23l55.49.12c4.32.06 5.77-1.46 6.45-5.41l11.28-64.42c3.64-20.58 15.66-30.54 36.62-30.4 14.12.1 20.43 7 18.32 20.87l-8.7 52.11-4.72 26.87c2.33.11 3.94.25 5.55.25l53.49.13c4.58.08 6-1.67 6.65-5.73l11.22-63.84c4-21.92 16.47-31.59 38.85-30.63 10.75.45 16.19 5.86 16.31 16.66a60.17 60.17 0 0 1-1.09 11.9l-15.22 78.89c-.67 3.5-2.09 4.62-5.61 4.57l-40.49-.08-88.49.1c-1.78 0-4.82 1-5.15 2.19-3.77 13.26-7.13 26.62-10.83 40.8zm-533.1-103.65l.19-1.46c-1.69-1-3.4-2-5.06-3.1-13.1-8.47-23.25-19.35-25.35-35.37a84.6 84.6 0 0 1 .49-23.35c5.83-38.45 35.56-67.59 76.09-64.89 16.08 1.07 28.52 7.66 35 23.05 1.39 3.34 3.24 3.91 6.39 3.9l84.49-.07c1.59 0 3.18-.2 4.64-.3 1.2-7.36-.26-18.29-3.44-26.41C419 36.68 403.5 25.14 385 17c-20.07-8.85-41.38-12.23-63.1-13.45-34.49-1.94-68.42.56-101.59 11.28-66.49 21.48-94.75 84.74-92.07 137.8.22 4.23 1.75 7.28 5.9 8.84 4.66 1.76 9.19 3.91 13.91 5.49 24.55 8.18 49.86 12.95 75.52 15.77 9.85 1.05 19.81 1.1 29.72 1.62zm195.37 112.4a20 20 0 0 0 2.85.48l51.48-.1c19-.5 35-7.83 46.86-22.91 13-16.5 26.24-32.82 38.11-50.09l82.23-122.31 12.09-18.1a16.31 16.31 0 0 0-2.6-.56c-21.66 0-43.32-.11-65 .11-1.66 0-3.84 1.75-4.85 3.3-4 6.12-7.67 12.47-11.41 18.77l-31.58 53.2c-.6-3.52-.9-6.79-1.73-9.91L548.9 87.95c-1-3.83-2.64-4.94-6.46-4.92l-85 .09c-1 0-2.05.16-4.36.36 8.6 5 16.15 9.23 23.41 13.86a13.37 13.37 0 0 1 5.2 6.1q18.94 52.32 37.31 104.85c.84 2.41.58 6.21-.82 8.21-6.77 9.66-14.06 19-21.26 28.32a20.35 20.35 0 0 1-14.47 8c-7.43.74-14.93.68-22.39 1.24-1.45.11-3.86 1.3-4.06 2.33-2.64 13.35-4.93 26.76-7.34 40.36zm-86.29-83.39l-2.23 18.16h50.09q9.61-63 19.19-125.55a17.59 17.59 0 0 0-2.43-.52q-55.74 0-111.49-.1c-2.93 0-4 1.3-4.77 3.89l-12.6 40c-.37 1.18-.51 2.43-.91 4.36H337c-2.59 3.06-4.28 5.27-6.19 7.28-12.81 13.42-28.73 21.42-46.32 26.23-41.33 11.31-82.7 8.83-123.93-.65-8.82-2-17.41-5-26.58-7.71.76 1.35 1.26 2.36 1.88 3.3 11.18 17.22 26.43 29.84 44.61 39 32.92 16.62 68 21.05 104.32 17.88 27.08-2.37 52.63-9.52 75.4-25a9.12 9.12 0 0 1 2.18-.57zM110.53 67c-2.51-.15-4.14-.32-5.76-.32-18.83 0-37.65.15-56.47-.13-4.64-.07-5.78 1.71-6.5 5.84L17.33 209.9l-3.84 22.76c2.3.17 3.77.37 5.23.37l57.47.13c4.22.05 5.29-1.72 5.93-5.34Q93.34 164 104.76 100.13L110.53 67zm14.13-49.12l-.31-1.17-67.88.14c-1.17 0-3 1.91-3.37 3.25-1.52 5.26-2.6 10.65-3.82 16l-4 17.8zm467.4 261.92l-.37-1.51 25.16-12.86a15.32 15.32 0 0 0 9-11.16c1.11-5.11.12-6.92-5.1-7.16-6.15-.29-12.31-.21-18.46-.08a37 37 0 0 0-8.87 1c-4.87 1.3-5.55 5.94-6.17 9.91-.16 1 3.17 2.58 4.57 3.64 2.13-3.2 3.47-7.37 5.29-7.59 6.81-.8 13.78-.32 20.69-.32a41.59 41.59 0 0 0 1 1.69c-1.92 1.89-3.53 4.33-5.81 5.58-9.75 5.35-19.72 10.32-29.58 15.49-3.79 2-6.8 4.58-6.42 9.81 11.7 0 23.16.27 34.6-.11 6-.19 8.37-3.61 8.75-10.54l-4-1.17c-2.18 2.18-3.68 5-5.42 5.18-6.32.55-12.61.21-18.86.21zm79.16-8.54l7.61-25.52c-4.73 1.2-8.58 1.3-11.41 3.06-10.71 6.64-21.18 13.69-31.51 20.92-2 1.42-3 4.3-4.54 6.51l1.12 1.44h28.31l-1.73 8.26c4.9 1.49 8.27.78 8.93-4.65.52-4.27 3.61-4.15 6.67-3.89 3.83.32 5.52-1.25 5.1-5.38zm96.16-17.67l-30.6 32.65c6 1.41 9.71.05 13.2-4 7.76-9.1 16.19-17.63 24.1-26.61 1.91-2.18 2.87-5.2 4.68-8.61h-38.24a8.63 8.63 0 0 0-3 .08c-1.22.48-2.88 1.17-3.27 2.19-1.36 3.49-2.25 7.15-3.28 10.63 4.87 2.56 8 2.26 9-3.47a4.5 4.5 0 0 1 3.34-2.7c7.51-.28 14.97-.15 24.07-.15zM33.74 286.67l-4.28-4.76-4-4.5c9.62-2.07 10.54-3.1 12-12 .56-3.49-.42-5.52-4.27-5.52-7 0-14-.08-20.95.05-1.06 0-2.81.88-3 1.68l-6.35 24.92c6.26 2.37 6.22-2.08 7.12-5.48 1.31-4.9 5.27-6.23 8.67-2.84a24.27 24.27 0 0 1 3.75 4.65c2.49 4.21 5.99 5.38 11.31 3.8zm336.18-15.81c1.12-2.76 1.73-5.67 2.41-5.69 5.82-.15 11.65.19 17.48.44 1.44.07 2.95.67 4.26.34.67-.17 1.61-2.24 1.3-2.77-.76-1.26-2.16-2.95-3.35-3a193.17 193.17 0 0 0-20.42.06c-4 .28-7.37 7-6.57 12 .71 4.5 4.49 3.11 7.16 3.25 4.9.27 9.82.08 14.62.08.66 5.3-1 7.82-5.68 7-5.21-.9-11.15 2.65-15.78-2.57-.3-.33-3.6.93-4.1 2.07-1.12 2.54.2 4.72 3.12 4.88 5.47.29 10.95.31 16.43.32 8.21 0 10.08-1.6 11.7-9.71 1.06-5.34.06-6.65-5.33-6.71s-10.58.01-17.25.01zm59.08 4.67l1.1 1.49c-1.1 1.82-2.26 5.24-3.26 5.19-6.29-.31-13 3-18.94-1.91-.61-.5-3.77.62-4.22 1.66-1.5 3.41.79 5 3.87 5.19 4.81.26 9.65.15 14.48.16 9.44 0 10.48-.81 12.56-9.79 1.26-5.44.42-6.58-5.14-6.64s-10.85 0-17.56 0c1.3-2.75 2-5.78 2.88-5.84 5.6-.38 11.24-.17 16.86 0a27.55 27.55 0 0 1 4.93 1c.23-1.26 1.07-3.07.54-3.67a7.21 7.21 0 0 0-4.35-2.35c-4.47-.32-9-.17-13.48-.16-8.73 0-10.25 1.47-11.7 10.06-.67 3.92.59 5.66 4.58 5.6l16.85.01zm-126.22 2.25l-1.31.83c-1.07-1.41-2-2.92-3.23-4.23l-11.89-12.77c-1.94-2.05-4.81-3.29-5.86 0-2.57 8.16-4.32 16.57-6.42 24.93 4.83.7 4.88.71 5.83-2.84l4-15.58 4.37 4.64c4 4.26 7.83 8.61 11.93 12.74 2 2 4.78 3.5 6-.58 2.37-8.06 4.25-16.26 6.34-24.41-3.65-1.42-5.42-.49-6.16 2.93-1.09 4.84-2.38 9.56-3.59 14.34zm17.46 9.49l25.68-.14c1.16 0 2.26-1.91 3.38-2.93l-.85-1.67h-20.12c.2-7.34.48-7.63 6.59-7.66a17.49 17.49 0 0 0 4.47-.11c1.38-.4 2.55-1.49 3.82-2.27l-.58-1.3-11.55-.72c-.27-5 1.52-7 6.13-6.62a90.7 90.7 0 0 0 13 0c1.64-.11 3.21-1.36 4.8-2.1l-.54-1.79c-8.43 0-16.86-.1-25.29.12-1 0-2.45 1.65-2.75 2.78-2.15 7.81-4.02 15.72-6.18 24.41zm-274.61 0l25.47-.14c1.15 0 2.24-2 3.36-3.12l-1-1.6H53.39c.22-7 .63-7.48 6.32-7.53 1.66 0 3.43.32 5-.13 1.32-.39 2.38-1.67 3.55-2.55l-.68-1.11-11.24-.49c-.5-4.95 1.13-7 5.84-6.74a99.56 99.56 0 0 0 13.49-.06c1.5-.11 2.91-1.54 4.36-2.37l-.67-1.52c-8.14 0-16.29-.07-24.43.09a3.69 3.69 0 0 0-2.84 2c-2.25 8.1-4.22 16.31-6.45 25.26zm35.89-1l1.09 1.62 5.94-3.4c1.62-1 3.09-2.8 4.76-3a82.32 82.32 0 0 1 13 0c1.16.07 3 1.16 3.26 2.12 1.2 4.4 3.94 4.16 7.7 3l-7.33-23.34c-1.23-3.8-5.37-5-8-2-6.94 8.2-13.63 16.65-20.41 25zm136.87-24.5l-.86-1.87c-8 0-16-.07-23.94.09-1 0-2.69 1-2.93 1.83-2.26 8.25-4.29 16.56-6.39 24.89 3.79 1.09 6.33.84 6.7-3.18.54-5.86 3.72-7.92 9.38-7 3.2.54 5-.77 4.54-4.78H195c-.18-6.77.22-7.22 6-7.25 4.33 0 8.68.23 13-.13 1.49-.11 2.92-1.68 4.4-2.6zm28.86 24.9c3.76 1.19 5.75.64 6.4-3 .62-3.43 1.65-6.78 2.48-10.17 2.15-8.74 2.15-8.82 11.06-9 2.93-.05 4.93-.61 4.51-4.67-9.43 0-18.87-.1-28.3.15-1.1 0-2.16 2-3.23 3.11l.91 1.13 11.42.55-5.24 21.9zm-120.33.59l24.66-.16c1.1 0 2.13-2.18 3.19-3.34l-.92-1.21h-19.54l5.28-22.15-.92-1.28c-1.84 1.16-4.84 2-5.33 3.54-2.41 7.72-4.16 15.64-6.41 24.6zM722.4 247l-1-1.63c-1.69 1.15-3.77 2-5 3.49l-20.36 25.95q-4.53 5.84-9.05 11.69l.88 1.17c1.42-.74 3.27-1.13 4.19-2.28L722.4 247zm-489.9 13.56l-1-1.26c-1.71.91-4.55 1.49-4.94 2.79-2.4 8.07-4.25 16.29-6.28 24.47l.95 1.24c1.71-.91 4.56-1.48 5-2.79 2.36-8.01 4.23-16.28 6.27-24.45z" fill="#fff"/><path d="M786.39 288l10.84-40.8c.33-1.16 3.37-2.18 5.15-2.19l88.49-.1 40.49.08c3.52.05 4.94-1.07 5.61-4.57l15.22-78.89a60.17 60.17 0 0 0 1.09-11.9c-.12-10.8-5.56-16.21-16.31-16.66-22.38-1-34.81 8.71-38.85 30.63l-11.22 63.84c-.69 4.06-2.07 5.81-6.65 5.73l-53.49-.13c-1.61 0-3.22-.14-5.55-.25l4.72-26.87 8.7-52.11c2.11-13.86-4.2-20.77-18.32-20.87-21-.14-33 9.82-36.62 30.4l-11.28 64.42c-.68 3.95-2.13 5.47-6.45 5.41l-55.49-.12h-5.23l13.26-76.31 9-52.11a7.12 7.12 0 0 0-2.39-5.63c-6.71-5.12-13.74-9.82-21.78-15.45h94.45l-2.23 14.55c6.58-3.31 12.21-6.41 18.05-9a101.77 101.77 0 0 1 56.58-7.78c14.61 2.05 25.2 9.81 31.8 23 .36.73.88 1.39 1.55 2.43l12.76-8.82c24.61-16 51.37-21.53 80.11-15.27 18 3.92 28.1 17 29.72 35.5 1.45 16.56-2.18 32.46-5.26 48.45L994.25 283.2c-.74 3.87-2.09 5.19-6.07 5.18q-98-.17-196-.09c-1.61.01-3.24-.15-5.79-.29zm-533.1-103.65c-9.91-.52-19.87-.57-29.71-1.65-25.66-2.82-51-7.59-75.52-15.77-4.72-1.58-9.25-3.73-13.91-5.49-4.15-1.56-5.68-4.61-5.9-8.84-2.68-53.06 25.58-116.32 92.07-137.8 33.17-10.72 67.1-13.22 101.59-11.28 21.72 1.22 43 4.6 63.1 13.45 18.49 8.17 34 19.71 41.69 39.38 3.18 8.12 4.64 19.05 3.44 26.41-1.46.1-3.05.3-4.64.3l-84.49.07c-3.15 0-5-.56-6.39-3.9-6.45-15.39-18.89-22-35-23.05-40.53-2.7-70.26 26.44-76.09 64.89a84.6 84.6 0 0 0-.49 23.35c2.1 16 12.25 26.9 25.35 35.37 1.66 1.07 3.37 2.07 5.06 3.1zm195.37 112.4l7.31-40.35c.2-1 2.61-2.22 4.06-2.33 7.46-.56 15-.5 22.39-1.24a20.35 20.35 0 0 0 14.47-8c7.2-9.35 14.49-18.66 21.26-28.32 1.4-2 1.66-5.8.82-8.21q-18.32-52.53-37.23-104.85a13.37 13.37 0 0 0-5.2-6.1c-7.26-4.63-14.81-8.82-23.41-13.86 2.31-.2 3.34-.36 4.36-.36l85-.09c3.82 0 5.47 1.09 6.46 4.92l16.21 60.68c.83 3.12 1.13 6.39 1.73 9.91l31.58-53.2c3.74-6.3 7.4-12.65 11.41-18.77 1-1.55 3.19-3.29 4.85-3.3l65-.11a16.31 16.31 0 0 1 2.6.56l-12.09 18.1-82.23 122.31c-11.87 17.27-25.14 33.59-38.11 50.09-11.9 15.07-27.96 22.4-46.9 22.9-17.15.46-34.32.12-51.48.1a20 20 0 0 1-2.86-.48zm-86.29-83.39a9.12 9.12 0 0 0-2.18.6c-22.77 15.46-48.32 22.61-75.4 25-36.31 3.17-71.4-1.26-104.32-17.88-18.18-9.17-33.43-21.79-44.61-39-.62-.94-1.12-2-1.88-3.3 9.17 2.69 17.76 5.69 26.58 7.71 41.23 9.48 82.6 12 123.93.65 17.59-4.81 33.55-12.81 46.33-26.26 1.91-2 3.6-4.22 6.19-7.28h-39.79c.4-1.93.54-3.18.91-4.36l12.6-40c.79-2.59 1.84-3.89 4.77-3.89q55.76.14 111.49.1a17.59 17.59 0 0 1 2.43.52q-9.59 62.67-19.19 125.55h-50.09l2.23-18.16zM110.53 67l-5.77 33.12Q93.43 164 82.12 227.83c-.64 3.62-1.71 5.39-5.93 5.34l-57.47-.13c-1.46 0-2.93-.2-5.23-.37l3.84-22.76L41.8 72.4c.72-4.13 1.86-5.91 6.5-5.84l56.47.13c1.62 0 3.23.17 5.76.31zm14.13-49.11l-79.38 36 4-17.79c1.22-5.35 2.3-10.74 3.82-16 .39-1.34 2.2-3.24 3.37-3.25l67.88-.14zm467.4 261.92c6.25 0 12.54.34 18.75-.23 1.74-.16 3.24-3 5.42-5.18l4 1.17c-.38 6.93-2.8 10.35-8.75 10.54-11.44.38-22.9.11-34.6.11-.38-5.23 2.63-7.83 6.42-9.81l29.58-15.49c2.28-1.25 3.89-3.69 5.81-5.58-.32-.56-.65-1.12-1-1.69-6.91 0-13.88-.48-20.69.32-1.82.22-3.16 4.39-5.29 7.59-1.4-1.06-4.73-2.62-4.57-3.64.62-4 1.3-8.61 6.17-9.91a37 37 0 0 1 8.87-1c6.15-.13 12.31-.21 18.46.08 5.22.24 6.21 2 5.1 7.16a15.32 15.32 0 0 1-9 11.16c-8.48 4.1-16.79 8.55-25.16 12.86zm79.16-8.54l8.55.75c.42 4.13-1.27 5.7-5.1 5.38-3.06-.26-6.15-.38-6.67 3.89-.66 5.43-4 6.14-8.93 4.65l1.73-8.26h-28.31l-1.12-1.44c1.49-2.21 2.5-5.09 4.54-6.51 10.33-7.23 20.8-14.28 31.51-20.92 2.83-1.76 6.68-1.86 11.41-3.06zm-3-16.57l-1-.72-24.73 16.12.62 1.52 17.83-.08a3.5 3.5 0 0 0 2.55-1.86c1.73-4.94 3.22-9.97 4.78-14.98zm99.16-1.1c-9.1 0-16.56-.13-24 .12a4.5 4.5 0 0 0-3.34 2.7c-1.07 5.73-4.15 6-9 3.47 1-3.48 1.92-7.14 3.28-10.63.39-1 2.05-1.71 3.27-2.19a8.63 8.63 0 0 1 3-.08h38.24c-1.81 3.41-2.77 6.43-4.68 8.61-7.91 9-16.34 17.51-24.1 26.61-3.49 4.09-7.19 5.45-13.2 4zM33.74 286.67c-5.32 1.58-8.82.41-11.31-3.8a24.27 24.27 0 0 0-3.75-4.65c-3.4-3.39-7.36-2.06-8.67 2.84-.9 3.4-.86 7.85-7.12 5.48l6.29-24.89c.22-.8 2-1.65 3-1.68 7-.13 14 0 20.95-.05 3.85 0 4.83 2 4.27 5.52-1.41 8.87-2.33 9.9-11.95 12l4 4.5 4.29 4.73zm-2.86-22.14H20.11c-6.62 0-7.12.55-6.85 8.16h11.26c5.48-.1 6.59-1.38 6.36-8.16zm339.04 6.33h17.25c5.25.05 6.39 1.37 5.33 6.71-1.62 8.11-3.49 9.71-11.7 9.71-5.48 0-11 0-16.43-.32-2.92-.16-4.24-2.34-3.12-4.88.5-1.14 3.8-2.4 4.1-2.07 4.63 5.22 10.57 1.67 15.78 2.57 4.68.82 6.34-1.7 5.68-7-4.8 0-9.72.19-14.62-.08-2.67-.14-6.45 1.25-7.16-3.25-.8-5.07 2.58-11.75 6.57-12a193.17 193.17 0 0 1 20.42-.06c1.19.05 2.59 1.74 3.35 3 .31.53-.63 2.6-1.3 2.77-1.31.33-2.82-.27-4.26-.34-5.83-.25-11.66-.59-17.48-.44-.68.01-1.33 2.92-2.41 5.68zm59.08 4.67c-5.62 0-11.23-.06-16.85 0-4 .06-5.25-1.68-4.58-5.6 1.45-8.59 3-10 11.7-10.06 4.5 0 9-.16 13.48.16a7.21 7.21 0 0 1 4.35 2.35c.53.6-.31 2.41-.54 3.67a27.55 27.55 0 0 0-4.93-1c-5.62-.18-11.26-.39-16.86 0-.89.06-1.58 3.09-2.88 5.84h17.56c5.42.05 6.4 1.2 5.14 6.64-2.08 9-3.12 9.8-12.56 9.79-4.83 0-9.67.1-14.48-.16-3.08-.16-5.37-1.78-3.87-5.19.45-1 3.61-2.16 4.22-1.66 5.93 4.89 12.65 1.6 18.94 1.91 1 .05 2.16-3.37 3.26-5.19zm-126.21 2.25c1.19-4.76 2.5-9.5 3.53-14.3.74-3.42 2.51-4.35 6.16-2.93l-6.34 24.41c-1.19 4.08-4 2.6-6 .58-4.1-4.13-8-8.48-11.93-12.74l-4.37-4.64-4 15.58c-1 3.55-1 3.54-5.83 2.84 2.1-8.36 3.85-16.77 6.42-24.93 1.05-3.33 3.92-2.09 5.86 0l11.89 12.77c1.19 1.31 2.16 2.82 3.23 4.23zm17.46 9.49l6.16-24.45c.3-1.13 1.78-2.75 2.75-2.78 8.43-.22 16.86-.12 25.29-.12l.54 1.79c-1.59.74-3.16 2-4.8 2.1a90.7 90.7 0 0 1-13 0c-4.61-.36-6.4 1.58-6.13 6.62l11.55.72.58 1.3c-1.27.78-2.44 1.87-3.82 2.27a17.49 17.49 0 0 1-4.47.11c-6.11 0-6.39.32-6.59 7.66h20.13l.85 1.67c-1.12 1-2.22 2.89-3.38 2.93-8.28.29-16.59.18-25.66.18zm-274.61-.01l6.41-25.31a3.69 3.69 0 0 1 2.84-2c8.14-.16 16.29-.09 24.43-.09l.67 1.52c-1.45.83-2.86 2.26-4.36 2.37a99.56 99.56 0 0 1-13.49.06c-4.71-.29-6.34 1.79-5.84 6.74l11.24.49.68 1.11c-1.17.88-2.23 2.16-3.55 2.55-1.53.45-3.3.11-5 .13-5.69.05-6.1.5-6.32 7.53H73.5l1 1.6c-1.12 1.09-2.21 3.08-3.36 3.12-8.31.31-16.59.18-25.5.18zm35.89-.99l20.41-25c2.59-3 6.73-1.84 8 2l7.33 23.34c-3.76 1.18-6.5 1.42-7.7-3-.26-1-2.1-2.05-3.26-2.12a82.32 82.32 0 0 0-13 0c-1.67.16-3.14 2-4.76 3l-5.94 3.4zm22.89-21.59l-9.17 11.51h12.27zm113.98-2.91c-1.48.92-2.91 2.49-4.46 2.63-4.3.36-8.65.11-13 .13-5.76 0-6.16.48-6 7.25h9.92c.45 4-1.34 5.32-4.54 4.78-5.66-.95-8.84 1.11-9.38 7-.37 4-2.91 4.27-6.7 3.18l6.39-24.89c.24-.84 1.91-1.82 2.93-1.83 8-.16 16-.09 23.94-.09zm28.86 24.9l5.25-21.83-11.42-.55-.91-1.13c1.07-1.08 2.13-3.08 3.23-3.11 9.43-.25 18.87-.15 28.3-.15.42 4.06-1.58 4.62-4.51 4.67-8.91.14-8.91.22-11.06 9-.83 3.39-1.86 6.74-2.48 10.17-.66 3.57-2.66 4.12-6.4 2.93zm-120.33.59c2.25-9 4-16.88 6.41-24.6.49-1.58 3.49-2.38 5.33-3.54l.92 1.28-5.28 22.15h19.55l.92 1.21c-1.06 1.16-2.09 3.3-3.19 3.34-7.93.29-15.88.16-24.66.16zM722.4 247l-30.31 38.39c-.92 1.15-2.77 1.54-4.19 2.28l-.88-1.17q4.53-5.85 9.05-11.69l20.36-25.95c1.22-1.52 3.3-2.34 5-3.49zm-489.9 13.56c-2 8.17-3.91 16.39-6.32 24.45-.39 1.31-3.24 1.88-5 2.79l-.95-1.24c2-8.18 3.88-16.4 6.28-24.47.39-1.3 3.23-1.88 4.94-2.79z"/><path d="M668.27 254.7c-1.56 5-3 10-4.78 15a3.5 3.5 0 0 1-2.55 1.86c-5.94.16-11.88.08-17.83.08l-.62-1.52L667.23 254zm-637.39 9.83c.23 6.78-.84 8.06-6.36 8.15H13.26c-.27-7.61.23-8.15 6.85-8.16zm73.54.15l3.1 11.51H95.25z" fill="#fff"/></svg>